<?xml version="1.0" encoding="utf-8"?>
<!-- Generator: Adobe Illustrator 23.0.6, SVG Export Plug-In . SVG Version: 6.00 Build 0)  -->
<svg version="1.1" id="Ebene_1" xmlns="http://www.w3.org/2000/svg" xmlns:xlink="http://www.w3.org/1999/xlink" x="0px" y="0px"
	 viewBox="0 0 445.6 526.3" style="enable-background:new 0 0 445.6 526.3;" xml:space="preserve">
<style type="text/css">
	.st0{fill:#BEE573;}
	.st1{fill:#FFFFFF;}
	.st2{fill:#72A900;}
	.st3{fill:#116B01;}
	.st4{opacity:0.8;fill:url(#SVGID_1_);enable-background:new    ;}
	.st5{fill:#CFF297;}
	.st6{fill:#D9FFD7;}
	.st7{fill:#377500;}
	.st8{fill:#ACD65B;}
	.st9{fill:#00751E;}
	.st10{fill:#8ED188;}
	.st11{fill:#4EA000;}
	.st12{fill:#98D80B;}
	.st13{fill:url(#SVGID_2_);}
	.st14{fill:url(#SVGID_3_);}
	.st15{fill:url(#SVGID_4_);}
	.st16{fill:url(#SVGID_5_);}
	.st17{fill:url(#SVGID_6_);}
	.st18{fill:#489300;}
</style>
<title>nachhaltigkeit-svg</title>
<g>
	<g id="Isolationsmodus">
		<polygon class="st0" points="111.9,172.6 111.7,153.7 94,131.1 69.9,131.3 53.3,154.4 53.5,173.2 52,173.2 51.8,153.7 68.9,129.6 
			94.9,129.3 113.1,152.9 113.4,172.6 		"/>
		<polygon class="st0" points="111,153.9 93.7,131.7 70.2,132 54,154.6 54.2,173.2 111.2,172.6 		"/>
		<path class="st0" d="M72.2,200.2c13.6-4,27.8-6.1,41.8-4.8l-0.2-18l-61.4,0.6l0.3,29.4C59.1,204.5,65.5,202.1,72.2,200.2z"/>
		
			<rect x="52" y="173.5" transform="matrix(0.9999 -1.064631e-02 1.064631e-02 0.9999 -1.8608 0.8905)" class="st0" width="61.4" height="3.4"/>
		
			<rect x="76.2" y="152.4" transform="matrix(0.9999 -1.064631e-02 1.064631e-02 0.9999 -1.6898 0.8879)" class="st0" width="12.6" height="13.5"/>
		<path class="st1" d="M103.4,195.1l-0.2-15.2l-13,0.1l0.2,16.2C94.7,195.6,99,195.2,103.4,195.1z"/>
		<path class="st1" d="M72.2,200.2c0.8-0.2,1.6-0.5,2.4-0.7v-0.4l-9.4,0.1v3.1C67.6,201.6,69.9,200.9,72.2,200.2z"/>
		<path class="st1" d="M64.6,202.6v-3.9l10.6-0.1v0.8l1.2-0.3L76.2,180l-13,0.1l0.2,23L64.6,202.6z"/>
		<polygon class="st1" points="90.3,167.3 75,167.4 74.8,152.6 82.4,143.4 90.1,152.4 		"/>
		<polygon class="st1" points="82.4,140.2 72.2,152.5 72.2,154.7 82.4,142.4 92.8,154.4 92.7,152.3 		"/>
		<path class="st1" d="M77.7,153.4l0.1,11.6l9.7-0.1l-0.1-11.6L77.7,153.4z"/>
		<polygon class="st2" points="306.9,302.8 306.8,280.5 272.3,253.6 237.9,280.7 237.9,303 236.1,303 236,279.9 272.3,251.5 
			308.6,279.5 308.6,302.8 		"/>
		<polygon class="st2" points="306.1,280.7 272.3,254.4 238.6,280.9 238.7,302.9 306.1,302.8 		"/>
		<path class="st2" d="M248,323l60.8-0.1l-0.1-18.7l-72.5,0.1v1.2C240,311.4,243.8,317.4,248,323z"/>
		<path class="st2" d="M258.5,335c13.6,13.3,30.2,22.4,48.1,28.1h2.3v-39.6l-60.2,0.1C251.6,327.7,254.9,331.5,258.5,335z"/>
		<polygon class="st1" points="281.4,291.9 263.3,292 263.3,280.6 272.4,273.6 281.4,280.5 		"/>
		<polygon class="st1" points="272.4,271.2 260.2,280.5 260.2,282.2 272.4,272.8 284.5,282.1 284.5,280.5 		"/>
		
			<rect x="276.4" y="248.4" transform="matrix(0.6157 -0.788 0.788 0.6157 -92.5488 315.3742)" class="st3" width="1.2" height="8.4"/>
		
			<rect x="283.8" y="254.1" transform="matrix(0.6157 -0.788 0.788 0.6157 -94.2436 323.3476)" class="st3" width="1.2" height="8.4"/>
		
			<rect x="291.1" y="259.8" transform="matrix(0.6157 -0.788 0.788 0.6157 -95.9342 331.3094)" class="st3" width="1.2" height="8.4"/>
		
			<rect x="298.4" y="265.5" transform="matrix(0.6174 -0.7867 0.7867 0.6174 -97.7778 338.446)" class="st3" width="1.2" height="8.4"/>
		
			<rect x="305.7" y="271.2" transform="matrix(0.6157 -0.788 0.788 0.6157 -99.3228 347.2423)" class="st3" width="1.2" height="8.4"/>
		
			<radialGradient id="SVGID_1_" cx="222.8" cy="-1926.8634" r="158.33" gradientTransform="matrix(1 0 0 -0.13 0 252.8116)" gradientUnits="userSpaceOnUse">
			<stop  offset="0" style="stop-color:#222221;stop-opacity:0.6"/>
			<stop  offset="0.11" style="stop-color:#222221;stop-opacity:0.48"/>
			<stop  offset="0.56" style="stop-color:#222221;stop-opacity:0.12"/>
			<stop  offset="1" style="stop-color:#222221;stop-opacity:0"/>
		</radialGradient>
		<ellipse class="st4" cx="222.8" cy="503.1" rx="222.8" ry="23.2"/>
		<path class="st5" d="M186.3,234.1c4.9,4.8,9.4,10,13.5,15.5c8.3,11,15.6,22.7,23,34.4l-0.7-90.3l-9.2-7l-16.6,0.2l0.1,21.6h-11.1
			L186.3,234.1z"/>
		<path class="st6" d="M297,74.6c-0.2-12-10.1-21.5-22.1-21.2c-1,0-2.1,0.1-3.1,0.3c-5.6-16.9-23.9-26-40.7-20.4
			c-8.9,3-16,9.6-19.6,18.3c-1.7-0.5-3.5-0.8-5.2-0.9c-11.9-0.4-21.8,9-22.2,20.9s9,21.8,20.9,22.2c5.8,0.2,11.5-2,15.7-6.1
			c11.1,9.2,26.9,10,38.8,1.9c8.3,8.8,22,9.2,30.8,0.9C294.5,86.4,297,80.7,297,74.6L297,74.6z"/>
		<path class="st6" d="M344,168c-0.7-11.5-10.5-20.3-22-19.6h-0.1c-9.4-10.3-25.3-11-35.6-1.6c-3,2.7-5.2,6.1-6.6,9.9
			c-1.3-0.3-2.7-0.5-4.1-0.5c-9.3,0.1-16.8,7.6-16.7,16.9c0.1,9.3,7.6,16.8,16.9,16.7c4.6,0,8.9-1.9,12.1-5.2
			c7.3,5.7,17.2,6.8,25.6,3.1c3.3,1.7,7,2.5,10.7,2.3C335.7,189.3,344.6,179.5,344,168C344,168,344,168,344,168z"/>
		<polygon class="st6" points="165.9,172.2 164.6,86.9 160.2,86.9 157.7,70.8 152.3,70.9 149.3,58.7 141.2,58.8 138.6,71.1 
			133.2,71.2 131.2,87.4 126.5,87.5 127.8,172.7 		"/>
		<path class="st5" d="M383.2,362.9c4.4-1.2,8.8-2.7,13-4.5v-103l-9.4-8V228l-12.9-11l-13.5,11v19.7l-9.4,7.7V366h16
			C372.5,365.3,377.9,364.3,383.2,362.9z"/>
		<path class="st7" d="M319,364.2h2.4c-0.6-22.4-1.6-57.5-2.5-83c-0.4,0.1-0.9,0.2-1.3,0.2c-0.4,0-0.9-0.1-1.3-0.3
			c-0.9,25.1-1.8,59.6-2.5,82C315.6,363.5,317.3,363.9,319,364.2z"/>
		<path class="st7" d="M316.4,280.5c0.7,0.2,1.4,0.2,2-0.1c1.2-0.7,1.4-2.4,1.2-3.5c-0.2-1.5-1.5-2.6-3-2.7c-1.5,0-2.7,1.2-2.7,2.7
			c0,0,0,0,0,0C314,278.5,315,279.9,316.4,280.5z"/>
		<path class="st7" d="M364,284.8c-13.1-5.3-37.9-8-43.9-8.6c0.1,0.2,0.1,0.4,0.2,0.6c0.1,0.3,0.1,0.7,0.1,1l0,0
			c2,0.4,3.9,1.2,5.6,2.4c4.7,3.4,12.8,3.5,16.2,3.3C351.5,282.9,364,284.8,364,284.8z"/>
		<path class="st7" d="M316.1,273.7c-0.8-1.9-1-4-0.8-6.1c0.5-5.8-3.6-12.6-5.6-15.4c-5.3-7.6-10.2-19.2-10.2-19.2
			c2.2,13.6,12.4,35.3,15.2,41.3C315.1,274,315.6,273.8,316.1,273.7z"/>
		<path class="st7" d="M315.4,280.6c-0.4-0.3-0.8-0.7-1.1-1.2c-1.2,1.4-2.7,2.5-4.3,3.2c-5.2,2.6-9,9.6-10.4,12.7
			c-3.8,8.5-11.3,18.5-11.3,18.5C298.3,305.5,311.1,287.1,315.4,280.6z"/>
		<path class="st3" d="M253.7,307.4c1.7,4.7,9.6,5.8,13.6,7.7c10.1,4.8,9.3,15.4,17.2,11.5c2.3-1.2,2.5-5.3,0.4-7.1
			c12.1,3.8,18.1-18.7,1.8-19.7c3.4-14.8-17.4-16.9-19.4-4.3C262.1,289.7,250.4,298.3,253.7,307.4z"/>
		<path class="st3" d="M257.6,333.8c0.4,0.4,0.8,0.8,1.2,1.1c3.6-5,6.5-8.4,16.5-10.8c-0.2-0.5-0.5-1-0.8-1.4l-3.4,1
			c-0.3,0.2-0.7,0.1-1.1-0.1c-0.2-0.3-0.3-0.6-0.2-0.9c0.2-1.2,0.7-2.2,1.4-3.1c-0.4-0.6-1-1.1-1.7-1.3c-0.6,1.9-1.7,3.6-3.1,5
			c-0.9,0.8-2.2,0.8-3.1-0.1c-0.1-0.1-0.2-0.3-0.3-0.4c-1.2-2.2-0.3-5.5,0.8-7.6c-0.6-0.4-1.4-0.7-2.1-0.8c-0.8,6.2-3,12.1-6.3,17.3
			C256.1,332.4,256.9,333.1,257.6,333.8z"/>
		<path class="st2" d="M17.9,210.6c5.1-0.8,7.6-8.6,10.3-12.2c6.7-9.2,17.4-6.5,14.8-15c-0.8-2.5-5-3.4-7.1-1.7
			c6-11.4-15.7-21.4-19.7-5.4c-14.4-6.1-20.4,14.3-7.9,18.6C1.3,199,7.9,212.2,17.9,210.6z"/>
		<path class="st2" d="M47,210.6c-4.5-4.6-7.6-8-8.2-18.5c-0.5,0.1-1.1,0.3-1.6,0.5l0.4,3.5c0.1,0.4,0,0.8-0.2,1.1
			c-0.3,0.2-0.7,0.2-1,0c-1.1-0.4-2.1-1.1-2.9-2c-0.7,0.3-1.3,0.8-1.7,1.5c1.8,1,3.3,2.3,4.5,4c0.7,1,0.4,2.3-0.6,3
			c-0.2,0.1-0.3,0.2-0.5,0.3c-2.5,0.8-5.7-0.7-7.6-2.1c-0.6,0.6-1,1.2-1.2,2c6.1,1.9,11.7,5.2,16.5,9.4
			C44.2,212.3,45.6,211.4,47,210.6z"/>
		<path class="st3" d="M216.8,265.7c2.4,4.3,10.2,4,14.4,5.2c10.6,3,11.5,13.4,18.4,8.3c2-1.5,1.5-5.5-0.7-6.9
			c12.3,1.7,14.4-20.9-1.4-19.3c0.9-14.8-19.6-13.5-19.4-1C222,247.2,212.1,257.3,216.8,265.7z"/>
		<path class="st3" d="M223.7,285.2c1.1,1.6,2.1,3.3,3.1,4.9c2.4-4.7,5-8.2,13.5-11.7c-0.3-0.5-0.6-0.9-1-1.2l-3.1,1.5
			c-0.3,0.2-0.7,0.2-1,0.1c-0.3-0.2-0.4-0.5-0.4-0.9c0-1.1,0.3-2.3,0.9-3.2c-0.5-0.5-1.2-0.9-1.9-1c-0.3,1.9-1,3.7-2.2,5.3
			c-0.7,0.9-2,1.1-3,0.4c-0.1-0.1-0.2-0.2-0.3-0.3c-1.5-2-1.2-5.3-0.5-7.4c-0.7-0.3-1.4-0.5-2.2-0.5
			C225.9,275.8,225.2,280.6,223.7,285.2z"/>
		<path class="st8" d="M305.5,342.5c-3.4,1.4-7.9-2.4-11-3.7c-7.7-3.2-13.2,2.5-14.8-3.8c-0.5-1.9,1.8-4,3.7-3.7
			c-8-4.8,1.6-19.1,10.1-10.7c6.6-9.1,18,1.2,11.9,8.5C311.4,329.1,312.3,339.7,305.5,342.5z"/>
		<path class="st8" d="M287.4,354.2c1.1,0.5,2.1,1,3.2,1.4c1.1-5.3,3.6-10.2,7.1-14.2c-0.4-0.4-0.9-0.6-1.5-0.8
			c-0.6,1.6-2,3.7-3.9,4.1c-0.9,0.2-1.7-0.3-1.9-1.2c0-0.1,0-0.3,0-0.4c0.1-1.5,0.5-2.9,1.3-4.1c-0.5-0.2-1-0.3-1.6-0.3
			c-0.1,0.9-0.5,1.7-1,2.3c-0.1,0.2-0.4,0.3-0.6,0.4c-0.3,0-0.4-0.3-0.6-0.6l-1.1-2.3c-0.4,0.1-0.8,0.1-1.2,0.3
			C289.5,346,288.6,349.2,287.4,354.2z"/>
		<rect x="333.7" y="325.7" class="st3" width="46.4" height="4.3"/>
		<path class="st3" d="M380.1,363.7v-1.1h-46.4v3.5h32.5C370.9,365.5,375.5,364.7,380.1,363.7z"/>
		<rect x="333.7" y="331" class="st3" width="4.3" height="30.6"/>
		<rect x="375.8" y="331" class="st3" width="4.3" height="30.6"/>
		<polygon class="st3" points="356.9,273.4 328.7,302 337.1,302 337.1,296.9 356.9,277.1 376.8,297 376.8,302 385.3,302 		"/>
		<polygon class="st3" points="385.3,301 356.9,272.4 328.7,301 328.7,299.6 356.9,271 385.3,299.3 		"/>
		<path class="st3" d="M338.6,331v30.6h36.5V331H338.6z M356,360.1h-5.6v-15.3h5.6V360.1z M356,343.8h-5.6v-7.1h5.6V343.8z
			 M362.6,360.1H357v-15.3h5.6L362.6,360.1z M362.6,343.8H357v-7.1h5.6L362.6,343.8z"/>
		<path class="st3" d="M376.1,303v-5.4l-19.3-19.3l-19.1,19.1v5.5h-4.1v21.7H380V303H376.1z M364.5,315.5h-14.8v-14.4l7.5-8.9
			l7.4,8.8L364.5,315.5z"/>
		<path class="st3" d="M351.3,313.9h11.4v-12.2h-11.4V313.9z M357.4,303h3.9v4.2h-3.9V303z M357.4,308h3.9v4.5h-3.9V308z M352.7,303
			h3.9v4.2h-3.9V303z M352.7,308h3.9v4.5h-3.9V308z"/>
		<path class="st7" d="M164.2,215.4c12.6,8.9,23.1,18.6,32.4,30.7l-0.3-41.8c0,0-49.4,0.1-49,0.3
			C153.2,207.8,158.8,211.4,164.2,215.4z"/>
		
			<rect x="115.6" y="168.1" transform="matrix(1 -4.537840e-03 4.537840e-03 1 -0.7658 0.7245)" class="st7" width="87.3" height="2.1"/>
		<path class="st7" d="M124.1,196.8c2.2,0.4,3.8,0.6,5.8,1.1v-21.1h10.3v21.9l-6.7-0.1c4,1.3,7.9,2.8,11.6,4.6h9l-0.1-26.9h10.4
			l0.1,26.8l31.8-0.1l-0.1-32.6l-73.8,0.3l0.1,25.7L124.1,196.8z M188.3,176.6l0.1,21.4l-10.3,0.1l-0.1-21.4L188.3,176.6z"/>
		<polygon class="st7" points="168.1,145.7 168.1,153.5 150.2,153.5 150.2,145.8 115.6,167.7 202.9,167.4 		"/>
		<polygon class="st7" points="150.2,142.9 114.3,165.7 115.3,167.2 150.2,145.2 		"/>
		<polygon class="st7" points="168.1,142.7 168.1,145 203.2,166.9 204.4,165.3 		"/>
		<polygon class="st7" points="159.1,122.8 147.8,136.3 147.8,139.3 159.1,125.8 170.4,139.2 170.4,136.1 		"/>
		<polygon class="st7" points="147.5,136.2 146.9,135.7 159.1,121.2 171.3,135.5 170.7,136 159.1,122.3 		"/>
		<path class="st7" d="M159.1,126.5l-8.4,10.2l0.1,16.4l16.9-0.1l-0.1-16.5L159.1,126.5z M163.9,149.8h-9l-0.1-11.1h9L163.9,149.8z"
			/>
		<rect x="130" y="178.5" class="st1" width="8.4" height="13.4"/>
		
			<rect x="155" y="177.2" transform="matrix(1 -4.188778e-03 4.188778e-03 1 -0.7735 0.6686)" class="st1" width="8.5" height="15.6"/>
		
			<rect x="155.9" y="139.3" transform="matrix(1 -4.188778e-03 4.188778e-03 1 -0.603 0.6684)" class="st1" width="6.8" height="10.1"/>
		<ellipse class="st7" cx="367.4" cy="93" rx="16.1" ry="15.9"/>
		<path class="st7" d="M367.4,74c-0.8,0-1.4-0.7-1.4-1.4c0,0,0,0,0,0v-10c0-0.8,0.6-1.4,1.4-1.4c0.8,0,1.4,0.6,1.4,1.4v10
			C368.9,73.3,368.3,74,367.4,74C367.5,74,367.4,74,367.4,74z"/>
		<path class="st7" d="M367.4,124.2c-0.8,0-1.4-0.6-1.4-1.4c0,0,0,0,0,0v-10c0-0.8,0.6-1.4,1.4-1.4c0.8,0,1.4,0.6,1.4,1.4v10
			C368.8,123.5,368.2,124.2,367.4,124.2C367.4,124.2,367.4,124.2,367.4,124.2z"/>
		<path class="st7" d="M397.8,94.1h-10c-0.8,0-1.4-0.6-1.4-1.4c0-0.8,0.6-1.4,1.4-1.4c0,0,0,0,0,0h10c0.8,0,1.4,0.6,1.4,1.4
			C399.2,93.4,398.6,94.1,397.8,94.1C397.8,94.1,397.8,94.1,397.8,94.1z"/>
		<path class="st7" d="M347.1,94.1H337c-0.8,0-1.4-0.6-1.4-1.4c0-0.8,0.6-1.4,1.4-1.4c0,0,0,0,0,0h10.1c0.8,0,1.4,0.6,1.4,1.4
			C348.5,93.4,347.8,94.1,347.1,94.1C347.1,94.1,347.1,94.1,347.1,94.1z"/>
		<path class="st7" d="M381.8,79.8c-0.4,0-0.7-0.1-1-0.4c-0.6-0.5-0.6-1.4,0-2c0,0,0,0,0,0l7.1-7c0.6-0.5,1.4-0.5,2,0
			c0.6,0.5,0.6,1.4,0,2c0,0,0,0,0,0l-7.1,7C382.5,79.7,382.1,79.8,381.8,79.8z"/>
		<path class="st7" d="M345.9,115.3c-0.4,0-0.7-0.1-1-0.4c-0.6-0.5-0.6-1.4,0-2c0,0,0,0,0,0l7.1-7c0.6-0.5,1.4-0.5,2,0
			c0.6,0.5,0.6,1.4,0,2c0,0,0,0,0,0l-7.1,7C346.6,115.2,346.3,115.3,345.9,115.3z"/>
		<path class="st7" d="M388.9,115.3c-0.4,0-0.7-0.2-1-0.4l-7.1-7c-0.6-0.5-0.6-1.4,0-2c0,0,0,0,0,0c0.6-0.5,1.4-0.5,2,0l7.1,7
			c0.6,0.5,0.6,1.4,0,2c0,0,0,0,0,0C389.6,115.2,389.3,115.3,388.9,115.3z"/>
		<path class="st7" d="M353,79.8c-0.4,0-0.7-0.1-1-0.4l-7.1-7c-0.6-0.5-0.6-1.4,0-2c0,0,0,0,0,0c0.6-0.5,1.4-0.5,2,0l7.1,7
			c0.6,0.5,0.6,1.4,0,2c0,0,0,0,0,0C353.7,79.7,353.4,79.8,353,79.8z"/>
		<path class="st7" d="M34.7,212.5c1,1.6,2.4,2.8,4.2,3.6c0.8-0.6,1.5-1.2,2.3-1.8c-1.8-0.4-3.4-1.5-4.4-3.1c-2-3.2-1-7.4,2.3-9.4
			c0.8-0.5,1.6-0.8,2.5-0.9l0.5,6.6c0,0.4,0.4,0.8,0.9,0.7c0.1,0,0.2,0,0.3-0.1l5.9-2.9c0.5,1.3,0.6,2.7,0.2,4
			c0.8-0.4,1.7-0.9,2.6-1.3c0-1.3-0.2-2.5-0.7-3.7l2.5-1.3h0.1l0,0c0.1-0.1,0.2-0.1,0.2-0.2l0,0c0,0,0.1-0.1,0.1-0.1
			c0,0,0-0.1,0.1-0.1l0,0l3.2-13.5l0.3,0.3c-1.5,2.9-1.3,6.3,0.3,9c1.5,2.4,4,4,6.8,4.3c2.5-0.9,5-1.7,7.4-2.4h0.1
			c3.2-3,3.9-7.9,1.6-11.6c-2.7-4.3-8.4-5.7-12.8-3c-1,0.6-1.9,1.4-2.5,2.3l-1-0.9l-0.1-0.1l-0.3-0.3l-4.2-3.7
			c-0.4-0.5-2.6-2.7-6.5-0.2c-0.4,0.2-0.5,0.7-0.3,1.1c0,0,0,0,0,0c0.2,0.4,0.7,0.5,1.1,0.3c3.1-1.9,4.3-0.3,4.5-0.1
			c0,0.1,0.1,0.1,0.1,0.1l1.5,1.4l-11.6,7.1l-3.4-2.5l2.7-1.6c0.4-0.2,0.5-0.7,0.3-1.1c0,0,0,0,0,0c-0.2-0.4-0.7-0.5-1.1-0.3
			l-5.5,3.3c-0.4,0.2-0.5,0.7-0.3,1.1c0,0,0,0,0,0c0.2,0.4,0.7,0.5,1.1,0.3l1.3-0.8l4.1,3.1l0.3,4.6c-5.1,0.6-8.6,5.3-8,10.3
			C33.6,210.2,34,211.5,34.7,212.5L34.7,212.5z M59.8,190.6l5.7,3.3c0.3,0.2,0.6,0.2,0.8,0c0.1-0.1,0.2-0.2,0.3-0.3
			c0.2-0.4,0.1-0.9-0.3-1.1c0,0,0,0,0,0l-5.7-3.3c0.5-0.6,1.1-1.2,1.8-1.6c3.3-2,7.5-1,9.5,2.2c2,3.2,1,7.4-2.2,9.4c0,0-0.1,0-0.1,0
			c-3.3,2-7.5,1-9.5-2.3C59,195.1,58.8,192.6,59.8,190.6z M43.6,206.2l-0.4-5.4c2.1,0.2,4,1.3,5.2,3L43.6,206.2z M54.6,186.5
			l1.5,1.3L53,200.9l-9.8-7.4L54.6,186.5z M52,202.1l-1.4,0.7c-1.7-2.6-4.5-4.3-7.6-4.3l-0.2-3.2L52,202.1z"/>
		<path class="st8" d="M312.4,354.7c-0.1,5.1,3.9,9.4,9.1,9.6c4.8,0.1,9-3.5,9.5-8.3c0.2-3.2-1.3-6.3-3.9-8.1l0.1-0.4l9.2,10.4l0,0
			c0,0,0.1,0.1,0.1,0.1l0.1,0.1l0,0c0.1,0,0.2,0.1,0.3,0.1h0.1l2.8-0.1c0.5,5.1,5,8.9,10.1,8.4s8.9-5,8.4-10.1s-5-8.9-10.1-8.4
			c-0.8,0.1-1.6,0.2-2.4,0.5l-1.9-4.2l2.2-4.7l1.5,0.1c0.4,0,0.8-0.4,0.8-0.8c0-0.4-0.3-0.7-0.7-0.8l-6.4-0.4
			c-0.4,0-0.8,0.3-0.9,0.7c0,0.4,0.3,0.8,0.7,0.8c0,0,0,0,0,0l3.2,0.2l-1.8,3.9l-13.6-1l0.7-1.9c0-0.1,0-0.1,0-0.2
			c0-0.2,0.4-2.2,4-2c0.4,0.1,0.8-0.2,0.9-0.7c0.1-0.4-0.2-0.8-0.7-0.9c0,0-0.1,0-0.1,0c-4.7-0.3-5.5,2.6-5.7,3.2l-2,5.2l-0.2,0.4
			c0,0,0,0.1,0,0.1l-0.5,1.3c-4.7-2.2-10.2-0.2-12.4,4.5C312.7,352.5,312.4,353.6,312.4,354.7L312.4,354.7z M344.5,349.2
			c-2.7,1.5-4.4,4.3-4.7,7.3h-1.5l4.9-10.3L344.5,349.2z M345.5,351.4l2.2,4.9l-5.4,0.1C342.5,354.3,343.7,352.5,345.5,351.4
			L345.5,351.4z M342.3,358l6.6-0.2c0.3,0,0.5-0.1,0.7-0.4c0.1-0.2,0.1-0.5,0-0.7l-2.7-6.1c3.6-1.2,7.4,0.8,8.6,4.4
			c1.2,3.6-0.8,7.4-4.4,8.6s-7.4-0.8-8.6-4.4C342.4,358.9,342.3,358.4,342.3,358L342.3,358z M327.9,345.7l0.7-1.8l13.4,0.9l-5.2,11
			L327.9,345.7z M314.8,354.9c0.3-3.8,3.6-6.6,7.4-6.4c0.8,0.1,1.6,0.3,2.4,0.6l-3.5,5.5c-0.2,0.4-0.1,0.9,0.3,1.1
			c0.4,0.2,0.8,0.1,1.1-0.2l3.5-5.6c1.8,1.4,2.9,3.6,2.7,5.9c-0.4,3.8-3.8,6.6-7.6,6.2C317.4,361.6,314.7,358.5,314.8,354.9
			L314.8,354.9z"/>
		<path class="st9" d="M356.2,210c0.3-1.4,2.2-6.4-1.4-6.7c-3.3-0.3-7.5,6.1-9.5,7.2c-0.1-1.4-0.3-2.6-0.5-2.6s-0.5,1.2-0.5,2.6
			c-2-1.2-6.2-7.6-9.5-7.2c-3.6,0.3-1.8,5.3-1.4,6.7c0.4,2.6,2.7,4.6,5.4,4.5c0,0-6.2,2.2-3.6,6.6c2.3,3.8,6.6,1.9,8-1.4
			c0.2-0.7,0.7-1.2,1.3-1.5c0.1,1.2,0.3,2.1,0.5,2.1s0.3-0.9,0.4-2.1c0.6,0.3,1.1,0.8,1.3,1.5c1.3,3.4,5.7,5.3,8,1.4
			c2.6-4.4-3.6-6.6-3.6-6.6C353.6,214.5,355.8,212.6,356.2,210z"/>
		<path class="st7" d="M285.1,119.2c-0.2-1.3-0.2-5.8-3.2-5c-2.7,0.7-4.1,7.1-5.3,8.6c-0.5-1.1-1-2-1.2-1.9s0,1.1,0.4,2.2
			c-2-0.3-7.3-4.2-9.8-2.9c-2.8,1.3,0.2,4.8,1,5.8c1.1,2,3.6,2.8,5.7,2c0,0-4.3,3.6-0.9,6.3c3,2.4,5.9-0.4,5.9-3.5
			c-0.1-0.6,0.2-1.2,0.6-1.6c0.5,0.9,0.9,1.6,1,1.6s0-0.9-0.3-1.8c0.6,0,1.1,0.3,1.5,0.8c2.1,2.3,6.2,2.5,6.8-1.3
			c0.7-4.2-4.9-4.1-4.9-4.1C284.3,123.6,285.6,121.4,285.1,119.2z"/>
		<path class="st10" d="M230.3,8.9c0.5-0.6,2.7-2.4,1.1-3.5s-5.1,0.9-6.4,0.9c0.3-0.7,0.6-1.3,0.4-1.3S225,5.4,224.6,6
			c-0.6-1.1-0.9-5.2-2.5-5.9c-1.8-0.8-2.2,2-2.5,2.8c-0.5,1.3,0,2.9,1.3,3.5c0,0-3.5-0.6-3.5,2.1c0,2.4,2.6,2.6,4.1,1.4
			c0.3-0.3,0.6-0.4,1-0.4c-0.3,0.6-0.4,1.1-0.4,1.1s0.4-0.4,0.8-0.9c0.2,0.3,0.3,0.7,0.2,1c-0.3,1.9,1.3,4,3.4,2.8c2.4-1.4,0-4,0-4
			C227.8,10.4,229.4,10.1,230.3,8.9z"/>
		<path class="st11" d="M230.3,127.7c0.5-0.6,2.7-2.4,1.1-3.5s-5.1,0.9-6.4,0.9c0.3-0.7,0.6-1.3,0.4-1.3s-0.5,0.4-0.9,1.1
			c-0.6-1.1-0.9-5.2-2.5-5.9c-1.8-0.8-2.2,2-2.5,2.8c-0.5,1.3,0,2.9,1.3,3.5c0,0-3.5-0.6-3.5,2.1c0,2.4,2.6,2.6,4.1,1.4
			c0.3-0.3,0.6-0.4,1-0.4c-0.3,0.6-0.4,1.1-0.4,1.1s0.4-0.4,0.8-0.9c0.2,0.3,0.3,0.7,0.2,1c-0.3,1.9,1.3,4,3.4,2.8c2.4-1.4,0-4,0-4
			C227.8,129.2,229.4,128.9,230.3,127.7z"/>
		<path class="st11" d="M395.9,172.8c0.5-0.6,2.7-2.4,1.1-3.6s-5.1,0.9-6.4,0.9c0.3-0.7,0.6-1.3,0.4-1.4s-0.5,0.4-1,1.1
			c-0.6-1.1-0.9-5.2-2.5-5.9c-1.8-0.8-2.2,2-2.5,2.8c-0.5,1.3,0.1,2.9,1.3,3.5c0,0-3.5-0.6-3.5,2.1c0,2.4,2.6,2.7,4.1,1.4
			c0.3-0.3,0.6-0.4,1-0.4c-0.2,0.6-0.4,1.1-0.4,1.1s0.4-0.4,0.8-0.9c0.2,0.3,0.3,0.7,0.2,1c-0.3,1.9,1.3,4,3.4,2.8c2.4-1.4,0-4,0-4
			C393.4,174.3,395,174,395.9,172.8z"/>
		<path class="st7" d="M127,37.7c-0.4-0.9-1.2-4.3-3.3-3.1c-1.9,1-1.8,6-2.4,7.4c-0.6-0.7-1.1-1.3-1.3-1.2s0.2,0.8,0.7,1.6
			c-1.5,0.1-6.2-1.8-7.9-0.4c-1.8,1.5,1,3.5,1.8,4.2c1.2,1.3,3.2,1.5,4.6,0.5c0,0-2.5,3.5,0.5,4.9c2.7,1.2,4.3-1.4,3.8-3.7
			c-0.2-0.4-0.1-0.9,0.1-1.3c0.5,0.6,0.9,1,1,1s-0.2-0.6-0.6-1.3c0.4-0.1,0.9,0,1.3,0.3c2,1.3,5.1,0.8,4.9-2.2
			c-0.2-3.3-4.4-2.2-4.4-2.2C127.2,41.2,127.8,39.3,127,37.7z"/>
		<path class="st5" d="M281.8,220.5c0.7-0.9,3.7-3.5,1.4-5c-2.1-1.3-7.1,1.5-8.9,1.6c0.4-1,0.7-1.8,0.5-1.9s-0.7,0.6-1.3,1.5
			c-0.9-1.5-1.5-7.2-3.8-8.1c-2.5-1-3,2.9-3.3,4c-0.6,1.9,0.2,4,2,4.9c0,0-4.9-0.6-4.7,3.1c0.2,3.4,3.8,3.6,5.8,1.8
			c0.4-0.4,0.9-0.6,1.4-0.6c-0.3,0.8-0.6,1.5-0.4,1.6s0.5-0.5,1-1.3c0.3,0.4,0.5,0.9,0.3,1.4c-0.3,2.7,2,5.5,4.8,3.7
			c3.2-2-0.1-5.6-0.1-5.6C278.4,222.7,280.6,222.2,281.8,220.5z"/>
		<rect x="177.7" y="175.7" class="st1" width="11.1" height="22.7"/>
		<rect x="153.5" y="175.7" class="st1" width="11.1" height="28.4"/>
		<rect x="129.5" y="175.7" class="st1" width="11.1" height="25.8"/>
		<path class="st12" d="M190.8,26.2c0.1-1.6,1.3-7.2-2.6-7c-3.5,0.2-7,7.6-9,9.2c-0.3-1.5-0.7-2.7-1-2.7s-0.3,1.3-0.2,2.8
			c-2.3-1-7.8-7.1-11.3-6.3c-3.8,0.9-1,5.9-0.5,7.4c0.8,2.8,3.6,4.5,6.5,4c0,0-6.3,3.3-2.9,7.6c3,3.8,7.4,1.1,8.3-2.8
			c0.1-0.7,0.5-1.4,1.1-1.8c0.3,1.2,0.6,2.2,0.8,2.2s0.2-1,0.1-2.3c0.7,0.2,1.3,0.7,1.7,1.4c1.9,3.4,6.9,4.8,8.7,0.3
			c2.1-5-4.9-6.5-4.9-6.5C188.8,31.3,190.5,29.3,190.8,26.2z"/>
		<path class="st11" d="M318.8,106.5c0.6-0.8,3-3.6,0.8-4.7c-2-1-6.3,2-7.9,2.3c0.3-0.9,0.5-1.7,0.3-1.8s-0.6,0.6-1,1.5
			c-1-1.2-2.1-6.3-4.3-6.9c-2.4-0.7-2.4,3-2.6,4c-0.4,1.8,0.6,3.6,2.3,4.2c0,0-4.5-0.1-4,3.3c0.5,3,3.8,2.9,5.4,1
			c0.3-0.4,0.7-0.6,1.2-0.6c-0.2,0.8-0.4,1.4-0.2,1.5s0.4-0.5,0.8-1.2c0.3,0.3,0.5,0.8,0.5,1.3c0,2.5,2.3,4.8,4.7,2.8
			c2.7-2.2-0.7-5.1-0.7-5.1C315.9,108.8,317.9,108.1,318.8,106.5z"/>
		<path class="st8" d="M188.8,227.1c2.3,3.6,9.2,3,12.9,3.9c9.4,2.1,10.8,11.2,16.6,6.4c1.7-1.4,1.1-4.9-1-6
			c10.9,0.9,11.6-19.1-2.2-16.9c0-13.1-17.9-10.9-17.1,0.1C192.4,210.6,184.2,220,188.8,227.1z"/>
		<path class="st8" d="M195.7,244.5c1.1,1.3,2.1,2.6,3.1,3.8c1.9-4.3,3.9-7.7,11.3-11.3c-0.3-0.4-0.6-0.7-0.9-1.1l-2.6,1.4
			c-0.3,0.1-0.6,0.3-0.9,0.2c-0.2-0.2-0.4-0.5-0.4-0.8c-0.1-1,0.2-2,0.6-2.9c-0.5-0.4-1.1-0.7-1.7-0.8c-0.1,1.7-0.7,3.3-1.6,4.8
			c-0.6,0.9-1.7,1.1-2.6,0.5c-0.1-0.1-0.2-0.2-0.3-0.3c-1.4-1.6-1.3-4.6-0.8-6.5c-0.6-0.2-1.3-0.3-1.9-0.3
			C197.3,235.8,196.9,240.2,195.7,244.5z"/>
		<path class="st1" d="M384.2,371.3c-31.5,61.9-95.1,100.9-164.6,100.9c-101.9,0-184.6-82.6-184.6-184.5c0-21.2,3.6-42.2,10.8-62.2
			c-2.7,1.8-5.3,3.8-7.7,5.9C7.1,331.6,63.3,438,163.6,469.1c90.4,28,187.6-14.8,228-100.3C389.2,369.6,386.7,370.5,384.2,371.3z"/>
		
			<radialGradient id="SVGID_2_" cx="284.16" cy="296.7483" r="760.83" gradientTransform="matrix(1 0 0 -1 0 525.8583)" gradientUnits="userSpaceOnUse">
			<stop  offset="1.000000e-02" style="stop-color:#FCFDEA"/>
			<stop  offset="0.12" style="stop-color:#E4EFCD"/>
			<stop  offset="0.37" style="stop-color:#A8CA84"/>
			<stop  offset="0.41" style="stop-color:#9DC477"/>
			<stop  offset="0.59" style="stop-color:#64A35C"/>
			<stop  offset="0.78" style="stop-color:#2E8441"/>
			<stop  offset="0.92" style="stop-color:#0D7031"/>
			<stop  offset="1" style="stop-color:#00692B"/>
		</radialGradient>
		<path class="st13" d="M341.5,377.3c-22.7,0-45.1-6.3-54.7-10.3c-31.7-13.3-48.9-41.5-67.2-71.3c-15.3-24.9-31.1-50.7-56.2-67.6
			c-20.2-13.6-40.6-20.5-60.6-20.5c-20.3,0.2-40.1,6.3-56.8,17.8c-7.1,20-10.8,41-10.8,62.2c0,101.9,82.6,184.5,184.6,184.5
			c69.5,0,133.1-39,164.5-100.9C370.4,375.4,355.9,377.4,341.5,377.3z"/>
		
			<radialGradient id="SVGID_3_" cx="299.52" cy="364.6783" r="299.88" gradientTransform="matrix(1 0 0 -1 0 525.8583)" gradientUnits="userSpaceOnUse">
			<stop  offset="0" style="stop-color:#E2E41A"/>
			<stop  offset="0.13" style="stop-color:#C5DA28"/>
			<stop  offset="0.3" style="stop-color:#9ACA3C"/>
			<stop  offset="0.5" style="stop-color:#64A836"/>
			<stop  offset="0.73" style="stop-color:#2E8630"/>
			<stop  offset="0.91" style="stop-color:#0D712C"/>
			<stop  offset="1" style="stop-color:#00692B"/>
		</radialGradient>
		<path class="st14" d="M176.2,259.5c2.6,0.2,4.9,1.7,6,4c3.2-3.4,9.1-1.2,13.3-3.2c0.2-0.1,0.4-0.2,0.5-0.3
			c-6.1-8.1-12.9-15.6-20.4-22.4c0,0.1,0,0.2-0.1,0.4c-0.7,6.3-1.4,12.7-2.1,19c-0.1,0.6-0.1,1.2,0.2,1.7
			C174.1,259.5,175.2,259.4,176.2,259.5z"/>
		
			<radialGradient id="SVGID_4_" cx="299.52" cy="364.6783" r="299.88" gradientTransform="matrix(1 0 0 -1 0 525.8583)" gradientUnits="userSpaceOnUse">
			<stop  offset="0" style="stop-color:#E2E41A"/>
			<stop  offset="0.13" style="stop-color:#C5DA28"/>
			<stop  offset="0.3" style="stop-color:#9ACA3C"/>
			<stop  offset="0.5" style="stop-color:#64A836"/>
			<stop  offset="0.73" style="stop-color:#2E8630"/>
			<stop  offset="0.91" style="stop-color:#0D712C"/>
			<stop  offset="1" style="stop-color:#00692B"/>
		</radialGradient>
		<path class="st15" d="M341.5,377.3c-22.7,0-45.1-6.3-54.7-10.3c-31.7-13.3-48.9-41.5-67.2-71.3c-6.5-10.6-13-21.3-20.4-31.4
			c-3.4,0.8-7,1.4-10.4,0.5c-2.2-0.6-4.7-1.8-6.4-0.3c-0.9,0.8-1.2,2.2-1.6,3.4c-1.1,3.3-3.5,5.9-6.6,7.3c-1,0.3-1.9,0.8-2.6,1.5
			c-0.7,0.8-0.7,2.2,0.2,2.6c1.3,3.2-1.2,6.9-3.9,9.2s-6,3.6-8.6,5.8c-2.5,2.3-4.5,5-6,8c-9,16.1-12.9,36.6-4.3,53
			c5.2,10,14.4,17.3,24.2,22.7c3.6,2.1,7.6,3.6,11.8,4.4c14.4,2.1,29-10,42.6-4.8c3.5,1.3,6.9,3.8,10.6,3.1c1.3-0.2,2.5-0.8,3.8-0.6
			c2.9,0.5,3.5,4.6,2.5,7.4s-2.7,5.8-1.7,8.6c0.8,2.2,2.9,3.5,4.8,4.9c7.3,5.7,10.9,14.8,9.6,23.9c-0.4,2.5-1.1,4.9-1,7.4
			c0.2,3.3,1.9,6.3,3.6,9.1l6.5,10.8c0.6,1.2,1.4,2.1,2.5,2.8c1.5,0.8,3.3,0.4,4.9,0c20-5.2,40.2-15.1,50.6-33
			c1.1-2.1,2.3-4.1,3.7-6c1.9-2.3,4.3-4,6.4-6.1c4.2-4,7.1-9.1,8.4-14.7c1.1-4.7,1-9.6,1.6-14.4c0.1-1.1,0.3-2.2,0.5-3.3
			C343.7,377.3,342.6,377.3,341.5,377.3z"/>
		
			<radialGradient id="SVGID_5_" cx="299.52" cy="364.6783" r="299.88" gradientTransform="matrix(1 0 0 -1 0 525.8583)" gradientUnits="userSpaceOnUse">
			<stop  offset="0" style="stop-color:#E2E41A"/>
			<stop  offset="0.13" style="stop-color:#C5DA28"/>
			<stop  offset="0.3" style="stop-color:#9ACA3C"/>
			<stop  offset="0.5" style="stop-color:#64A836"/>
			<stop  offset="0.73" style="stop-color:#2E8630"/>
			<stop  offset="0.91" style="stop-color:#0D712C"/>
			<stop  offset="1" style="stop-color:#00692B"/>
		</radialGradient>
		<path class="st16" d="M79,374.2c2.8,3,5.6,6.1,8.6,8.8c4.9,4.4,10.9,8.8,11.4,15.3c0.2,2.4-0.4,4.7-0.4,7c0,6.6,4.5,12.5,4.8,19
			c-22.7-18.6-40.3-42.6-51-69.9C43.3,332.1,38.8,305.4,39,282c0-5.7,1-14.4,2.9-20.1c-1.9,12.5-1.8,28.9,0,41.5
			c1.5,10.8,4.6,21.9,12,29.9c1.4,1.3,2.6,2.8,3.8,4.2c4.1,5.8,3.2,13.9,6.8,20.1c1.1,1.8,2.5,3.5,4,5.1
			C72,366.5,75.5,370.3,79,374.2z"/>
		
			<radialGradient id="SVGID_6_" cx="299.52" cy="364.6783" r="299.88" gradientTransform="matrix(1 0 0 -1 0 525.8583)" gradientUnits="userSpaceOnUse">
			<stop  offset="0" style="stop-color:#E2E41A"/>
			<stop  offset="0.13" style="stop-color:#C5DA28"/>
			<stop  offset="0.3" style="stop-color:#9ACA3C"/>
			<stop  offset="0.5" style="stop-color:#64A836"/>
			<stop  offset="0.73" style="stop-color:#2E8630"/>
			<stop  offset="0.91" style="stop-color:#0D712C"/>
			<stop  offset="1" style="stop-color:#00692B"/>
		</radialGradient>
		<path class="st17" d="M357.7,396.1c2.3-4.8,4.7-9.9,4.3-15.3c-0.6,5.2-5.4,8.7-8.7,12.8c-5.3,6.6-6.8,15.3-11.6,22.3
			C349.6,412.4,353.9,404,357.7,396.1z"/>
		<path class="st8" d="M396.3,345.6c-3.7,2.5-10-0.8-13.9-1.5c-9.9-1.8-14.9,6.3-18.5-0.6c-1.1-2,1-5.1,3.4-5.3
			c-10.7-3.6-3.2-22.9,9.1-15.2c5.3-12.5,21.5-3.2,16.3,6.9C399.7,328.5,403.6,340.7,396.3,345.6z"/>
		<path class="st8" d="M378.1,364.1c1.3-0.3,4.2-1,4.2-1s1.9-11.7,4.6-16.6c-0.6-0.3-1.3-0.5-2-0.5c-0.3,2-1.4,4.9-3.5,5.9
			c-1,0.4-2.1,0-2.5-1c-0.1-0.1-0.1-0.3-0.1-0.4c-0.3-1.7-0.2-3.5,0.4-5.2c-0.6-0.2-1.3-0.1-2,0.1c0.1,1-0.1,2.1-0.6,3
			c-0.1,0.3-0.4,0.5-0.6,0.6c-0.3,0-0.6-0.3-0.8-0.5l-1.9-2.4c-0.5,0.2-0.9,0.4-1.3,0.6C378.6,354.4,378.1,357.4,378.1,364.1z"/>
		<path class="st18" d="M124.2,197c-0.7-26.5-3.3-68.7-4.3-97.5c-0.4,0.2-0.9,0.3-1.4,0.3c-0.5,0-1-0.1-1.4-0.2
			c-1,28.3-4.9,69.2-5.6,95.7C115.8,195.6,120,196.2,124.2,197z"/>
		<path class="st18" d="M114.8,97.8c-0.6-0.5-0.9-1.2-0.9-2c0-1.6,1.7-2.6,2.9-3c1.6-0.5,3.3,0.1,4.2,1.5c0.7,1.5,0.2,3.2-1.3,4
			C118,99.1,116.2,98.9,114.8,97.8z"/>
		<path class="st18" d="M86.1,53.8c12,10.1,27.4,32.7,31.1,38.3c-0.2,0-0.4,0.1-0.7,0.1c-0.3,0.1-0.7,0.2-1,0.4l0,0
			c-1.4-1.8-3.2-3.2-5.3-4.2c-5.8-2.9-10-10.7-11.6-14.1C94.4,65,86.1,53.8,86.1,53.8z"/>
		<path class="st18" d="M121.7,94.7c2.3-0.3,4.5-1,6.5-2.3c5.5-3.4,14.4-3,18.2-2.5c10.3,1.3,24.3,0,24.3,0
			c-14.6,4.8-41.4,6.2-48.8,6.4C121.8,95.8,121.8,95.2,121.7,94.7z"/>
		<path class="st18" d="M115.2,98.8c0.5,0.3,1.1,0.4,1.7,0.5c-0.7,1.9-1.1,3.9-1,5.9c0.1,6.4-4.9,13.7-7.3,16.7
			c-6.4,8.1-12.6,20.5-12.6,20.5C99.3,128.3,111,106.4,115.2,98.8z"/>
		<path class="st7" d="M139.5,200.9c-2.8-1.2-5.8-2.2-8.8-2.8v-7.4h8.8V200.9z"/>
		<rect x="154.6" y="190.6" class="st7" width="8.8" height="12.6"/>
		<rect x="178.9" y="190.6" class="st7" width="8.8" height="6.6"/>
	</g>
</g>
</svg>
