<svg xmlns="http://www.w3.org/2000/svg" enable-background="new 0 0 512 512" viewBox="0 0 512 512"><polygon fill="#fff" points="375.69 152.24 402.74 305.57 283.48 405.65 137.17 352.41 110.12 199.09 229.39 99"/><polygon fill="none" stroke="#fff" stroke-miterlimit="10" points="375.69 152.24 402.74 305.57 283.48 405.65 137.17 352.41 110.12 199.09 229.39 99"/><radialGradient id="a" cx="261.505" cy="259.636" r="151.415" gradientTransform="rotate(.81 170.724 266.133)" gradientUnits="userSpaceOnUse"><stop offset="0" stop-color="#1c1953"/><stop offset=".183" stop-color="#4e4c79" stop-opacity=".817"/><stop offset=".477" stop-color="#9998b2" stop-opacity=".522"/><stop offset=".722" stop-color="#d0d0dc" stop-opacity=".278"/><stop offset=".902" stop-color="#f2f2f5" stop-opacity=".098"/><stop offset="1" stop-color="#fff" stop-opacity="0"/></radialGradient><circle cx="261.59" cy="260.82" r="151.41" fill="url(#a)" opacity=".8"/><linearGradient id="b" x1="182.964" x2="328.588" y1="181.064" y2="326.688" gradientTransform="rotate(.81 170.724 266.133)" gradientUnits="userSpaceOnUse"><stop offset="0" stop-color="#1677f1"/><stop offset=".171" stop-color="#1970e8"/><stop offset=".45" stop-color="#205fd0"/><stop offset=".799" stop-color="#2c43a9"/><stop offset="1" stop-color="#34308f"/></linearGradient><path fill="url(#b)" d="M358.89,256.33c0.74-56.86-44.76-103.56-101.62-104.3c-56.87-0.74-103.56,44.76-104.3,101.62
			c-0.67,51.39,36.43,94.48,85.55,102.84l0.94-71.95l-26.14-0.34l0.39-29.76l26.14,0.34l0.29-22.68
			c0.34-25.8,15.89-39.86,39.41-39.55c11.26,0.15,23.02,2.31,23.02,2.31l-0.33,25.34l-12.98-0.17
			c-12.79-0.17-16.88,7.72-16.99,15.86l-0.25,19.31l28.56,0.37l-4.95,29.7l-23.99-0.31l-0.94,71.95
			C320.02,349.82,358.23,307.72,358.89,256.33z"/><path fill="#fff" d="M295.62,285.27l4.95-29.7l-28.56-0.37l0.25-19.31c0.11-8.14,4.2-16.03,16.99-15.86l12.98,0.17l0.33-25.34
			c0,0-11.76-2.16-23.02-2.31c-23.52-0.31-39.08,13.75-39.41,39.55l-0.29,22.68l-26.14-0.34l-0.39,29.76l26.14,0.34l-0.94,71.95
			c5.23,0.89,10.6,1.39,16.07,1.46c5.47,0.07,10.85-0.29,16.1-1.04l0.94-71.95L295.62,285.27z"/></svg>