<svg xmlns="http://www.w3.org/2000/svg" enable-background="new 0 0 512 512" viewBox="0 0 512 512"><polygon fill="#fff" points="369.05 157.97 395.96 310.5 277.31 410.08 131.75 357.11 104.84 204.57 223.49 105"/><radialGradient id="a" cx="255.515" cy="264.882" r="150.635" gradientTransform="rotate(.81 170.724 266.133)" gradientUnits="userSpaceOnUse"><stop offset="0" stop-color="#1c1953"/><stop offset=".183" stop-color="#4e4c79" stop-opacity=".817"/><stop offset=".477" stop-color="#9998b2" stop-opacity=".522"/><stop offset=".722" stop-color="#d0d0dc" stop-opacity=".278"/><stop offset=".902" stop-color="#f2f2f5" stop-opacity=".098"/><stop offset="1" stop-color="#fff" stop-opacity="0"/></radialGradient><circle cx="255.53" cy="265.99" r="150.64" fill="url(#a)" display="none" opacity=".8"/><radialGradient id="b" cx="284.675" cy="310.934" r="132.584" gradientTransform="rotate(.81 170.724 266.133)" gradientUnits="userSpaceOnUse"><stop offset="0" stop-color="#000057"/><stop offset=".248" stop-color="#4c4c89" stop-opacity=".752"/><stop offset=".519" stop-color="#9898bb" stop-opacity=".481"/><stop offset=".744" stop-color="#d0d0e0" stop-opacity=".256"/><stop offset=".91" stop-color="#f2f2f6" stop-opacity=".09"/><stop offset="1" stop-color="#fff" stop-opacity="0"/></radialGradient><circle cx="284.09" cy="312.42" r="132.58" fill="url(#b)" opacity=".8"/><linearGradient id="c" x1="314.26" x2="183.711" y1="191.708" y2="322.257" gradientTransform="rotate(.81 170.724 266.133)" gradientUnits="userSpaceOnUse"><stop offset=".001" stop-color="#ffe185"/><stop offset=".209" stop-color="#ffbb36"/><stop offset=".377" stop-color="#ff5176"/><stop offset=".524" stop-color="#f63395"/><stop offset=".739" stop-color="#a436d2"/><stop offset="1" stop-color="#5f4eed"/></linearGradient><circle cx="249.1" cy="258" r="92.31" fill="url(#c)"/><path fill="#fff" d="M278.21 223.46c-3.5-.05-6.38 2.76-6.43 6.26-.05 3.5 2.76 6.38 6.26 6.43 3.5.05 6.38-2.76 6.43-6.26C284.52 226.38 281.71 223.5 278.21 223.46zM249.89 231.23c-14.7-.19-26.81 11.61-27 26.31-.19 14.7 11.61 26.81 26.31 27 14.7.19 26.81-11.61 27-26.31C276.39 243.53 264.59 231.42 249.89 231.23zM249.33 274.95c-9.41-.12-16.97-7.88-16.85-17.29.12-9.41 7.88-16.97 17.3-16.85 9.41.12 16.97 7.88 16.85 17.29C266.5 267.52 258.74 275.08 249.33 274.95z"/><path fill="#fff" d="M270,312.27l-43.21-0.56c-17.93-0.23-32.32-15.01-32.09-32.93l0.56-43.21
					c0.23-17.93,15.01-32.32,32.93-32.09l43.21,0.56c17.93,0.23,32.32,15.01,32.09,32.93l-0.56,43.21
					C302.7,298.11,287.93,312.5,270,312.27z M228.07,213.66c-12.31-0.16-22.46,9.72-22.62,22.04l-0.56,43.21
					c-0.16,12.31,9.72,22.46,22.04,22.62l43.21,0.56c12.31,0.16,22.46-9.72,22.62-22.04l0.56-43.21
					c0.16-12.31-9.73-22.46-22.04-22.62L228.07,213.66z"/></svg>