<?xml version="1.0" encoding="UTF-8"?><svg xmlns="http://www.w3.org/2000/svg" xmlns:xlink="http://www.w3.org/1999/xlink" width="525pt" zoomAndPan="magnify" viewBox="0 0 525 74.999997" height="74.999997pt" preserveAspectRatio="xMidYMid meet" version="1.2"><defs><clipPath xml:id="clip1" id="clip1"><path d="M 0 54 L 45 54 L 45 55.5 L 0 55.5 Z M 0 54 "/></clipPath><clipPath xml:id="clip2" id="clip2"><path d="M 134 28 L 166.457031 28 L 166.457031 43 L 134 43 Z M 134 28 "/></clipPath><clipPath xml:id="clip3" id="clip3"><path d="M 61 21 L 94 21 L 94 53.25 L 61 53.25 Z M 61 21 "/></clipPath><clipPath xml:id="clip4" id="clip4"><path d="M 58 18 L 90 18 L 90 50 L 58 50 Z M 58 18 "/></clipPath><clipPath xml:id="clip5" id="clip5"><path d="M 267 22 L 282.855469 22 L 282.855469 51 L 267 51 Z M 267 22 "/></clipPath><clipPath xml:id="clip6" id="clip6"><path d="M 175.605469 22 L 266 22 L 266 51.75 L 175.605469 51.75 Z M 175.605469 22 "/></clipPath><clipPath xml:id="clip7" id="clip7"><path d="M 292 25 L 344 25 L 344 50.789062 L 292 50.789062 Z M 292 25 "/></clipPath><clipPath xml:id="clip8" id="clip8"><path d="M 345 21 L 387 21 L 387 50.789062 L 345 50.789062 Z M 345 21 "/></clipPath></defs><g xml:id="surface1" id="surface1"><g clip-rule="nonzero" clip-path="url(#clip1)"><path style=" stroke:none;fill-rule:nonzero;fill:rgb(23.139954%,33.729553%,23.139954%);fill-opacity:1;" d="M 44.984375 54 L 44.984375 55.5 L 0.015625 55.5 L 0.015625 54 L 44.984375 54 "/></g><path style=" stroke:none;fill-rule:nonzero;fill:rgb(23.139954%,33.729553%,23.139954%);fill-opacity:1;" d="M 13.507812 22.5 L 22.5 22.5 L 22.5 21 L 13.507812 21 L 13.507812 22.5 "/><path style=" stroke:none;fill-rule:nonzero;fill:rgb(23.139954%,33.729553%,23.139954%);fill-opacity:1;" d="M 19.503906 18 L 10.507812 18 L 10.507812 19.5 L 19.503906 19.5 L 19.503906 18 "/><path style=" stroke:none;fill-rule:nonzero;fill:rgb(23.139954%,33.729553%,23.139954%);fill-opacity:1;" d="M 9.011719 18 L 7.511719 18 L 7.511719 19.5 L 9.011719 19.5 L 9.011719 18 "/><path style=" stroke:none;fill-rule:nonzero;fill:rgb(23.139954%,33.729553%,23.139954%);fill-opacity:1;" d="M 39.738281 33.75 C 39.738281 33.335938 39.398438 33 38.988281 33 L 36.738281 33 L 36.738281 39 L 39.738281 39 L 39.738281 33.75 "/><path style=" stroke:none;fill-rule:nonzero;fill:rgb(23.139954%,33.729553%,23.139954%);fill-opacity:1;" d="M 17.179688 49.5 L 29.996094 49.5 L 29.996094 45 L 1.515625 45 L 1.515625 49.5 L 3.089844 49.5 C 3.441406 47.789062 4.957031 46.5 6.761719 46.5 C 8.253906 46.5 9.527344 47.382812 10.132812 48.644531 C 10.742188 47.382812 12.015625 46.5 13.507812 46.5 C 15.3125 46.5 16.828125 47.789062 17.179688 49.5 "/><path style=" stroke:none;fill-rule:nonzero;fill:rgb(23.139954%,33.729553%,23.139954%);fill-opacity:1;" d="M 14.257812 51 L 12.757812 51 L 12.757812 49.5 L 14.257812 49.5 Z M 13.507812 48 C 12.273438 48 11.257812 49.011719 11.257812 50.25 C 11.257812 51.488281 12.273438 52.5 13.507812 52.5 C 14.742188 52.5 15.753906 51.488281 15.753906 50.25 C 15.753906 49.011719 14.742188 48 13.507812 48 "/><path style=" stroke:none;fill-rule:nonzero;fill:rgb(23.139954%,33.729553%,23.139954%);fill-opacity:1;" d="M 38.988281 51 L 37.488281 51 L 37.488281 49.5 L 38.988281 49.5 Z M 38.238281 48 C 37 48 35.988281 49.011719 35.988281 50.25 C 35.988281 51.488281 37 52.5 38.238281 52.5 C 39.476562 52.5 40.484375 51.488281 40.484375 50.25 C 40.484375 49.011719 39.476562 48 38.238281 48 "/><path style=" stroke:none;fill-rule:nonzero;fill:rgb(23.139954%,33.729553%,23.139954%);fill-opacity:1;" d="M 43.484375 45.75 L 43.484375 44.25 L 41.984375 44.25 L 41.984375 45.75 L 43.484375 45.75 "/><path style=" stroke:none;fill-rule:nonzero;fill:rgb(23.139954%,33.729553%,23.139954%);fill-opacity:1;" d="M 38.988281 43.5 L 35.988281 43.5 L 35.988281 42 L 38.988281 42 Z M 43.484375 42.4375 L 40.109375 40.507812 C 40.109375 40.507812 40.109375 40.5 40.101562 40.5 L 35.988281 40.5 C 35.578125 40.5 35.238281 40.164062 35.238281 39.75 L 35.238281 33 L 31.492188 33 L 31.492188 49.5 L 34.5625 49.5 C 34.917969 47.789062 36.429688 46.5 38.238281 46.5 C 40.042969 46.5 41.558594 47.789062 41.910156 49.5 L 43.484375 49.5 L 43.484375 47.25 L 41.234375 47.25 C 40.824219 47.25 40.484375 46.914062 40.484375 46.5 L 40.484375 43.5 C 40.484375 43.085938 40.824219 42.75 41.234375 42.75 L 43.484375 42.75 L 43.484375 42.4375 "/><path style=" stroke:none;fill-rule:nonzero;fill:rgb(23.139954%,33.729553%,23.139954%);fill-opacity:1;" d="M 7.511719 51 L 6.011719 51 L 6.011719 49.5 L 7.511719 49.5 Z M 6.761719 48 C 5.527344 48 4.515625 49.011719 4.515625 50.25 C 4.515625 51.488281 5.527344 52.5 6.761719 52.5 C 7.996094 52.5 9.011719 51.488281 9.011719 50.25 C 9.011719 49.011719 7.996094 48 6.761719 48 "/><path style=" stroke:none;fill-rule:nonzero;fill:rgb(23.139954%,33.729553%,23.139954%);fill-opacity:1;" d="M 24.75 36 C 24.75 37.238281 23.738281 38.25 22.5 38.25 L 20.25 38.25 C 19.839844 38.25 19.503906 37.914062 19.503906 37.5 L 19.503906 31.5 C 19.503906 31.085938 19.839844 30.75 20.25 30.75 L 22.5 30.75 C 23.738281 30.75 24.75 31.761719 24.75 33 Z M 18.003906 36 C 18.003906 37.238281 16.992188 38.25 15.753906 38.25 L 15.007812 38.25 C 13.769531 38.25 12.757812 37.238281 12.757812 36 L 12.757812 33 C 12.757812 31.761719 13.769531 30.75 15.007812 30.75 L 15.753906 30.75 C 16.992188 30.75 18.003906 31.761719 18.003906 33 Z M 8.261719 36.75 L 9.011719 36.75 C 9.421875 36.75 9.761719 36.414062 9.761719 36 L 11.257812 36 C 11.257812 37.238281 10.246094 38.25 9.011719 38.25 L 8.261719 38.25 C 7.027344 38.25 6.011719 37.238281 6.011719 36 L 6.011719 33 C 6.011719 31.761719 7.027344 30.75 8.261719 30.75 L 9.011719 30.75 C 10.246094 30.75 11.257812 31.761719 11.257812 33 L 9.761719 33 C 9.761719 32.585938 9.421875 32.25 9.011719 32.25 L 8.261719 32.25 C 7.847656 32.25 7.511719 32.585938 7.511719 33 L 7.511719 36 C 7.511719 36.414062 7.847656 36.75 8.261719 36.75 Z M 29.996094 25.5 L 1.515625 25.5 L 1.515625 43.5 L 29.996094 43.5 L 29.996094 25.5 "/><path style=" stroke:none;fill-rule:nonzero;fill:rgb(23.139954%,33.729553%,23.139954%);fill-opacity:1;" d="M 22.5 32.25 L 21 32.25 L 21 36.75 L 22.5 36.75 C 22.914062 36.75 23.25 36.414062 23.25 36 L 23.25 33 C 23.25 32.585938 22.914062 32.25 22.5 32.25 "/><path style=" stroke:none;fill-rule:nonzero;fill:rgb(23.139954%,33.729553%,23.139954%);fill-opacity:1;" d="M 15.753906 32.25 L 15.007812 32.25 C 14.59375 32.25 14.257812 32.585938 14.257812 33 L 14.257812 36 C 14.257812 36.414062 14.59375 36.75 15.007812 36.75 L 15.753906 36.75 C 16.167969 36.75 16.503906 36.414062 16.503906 36 L 16.503906 33 C 16.503906 32.585938 16.167969 32.25 15.753906 32.25 "/><path style=" stroke:none;fill-rule:nonzero;fill:rgb(7.058716%,22.349548%,51.759338%);fill-opacity:1;" d="M 110.609375 33.058594 C 110.609375 34.605469 109.964844 35.855469 108.667969 36.804688 C 107.371094 37.753906 105.5625 38.222656 103.238281 38.222656 L 101.953125 38.222656 L 100.964844 42.457031 L 97.5625 42.457031 L 100.59375 29.457031 L 105.308594 29.457031 C 106.167969 29.457031 106.914062 29.515625 107.550781 29.628906 C 108.1875 29.746094 108.738281 29.949219 109.199219 30.230469 C 109.652344 30.507812 110 30.875 110.25 31.339844 C 110.488281 31.8125 110.609375 32.378906 110.609375 33.058594 Z M 106.996094 33.382812 C 106.996094 32.875 106.8125 32.503906 106.4375 32.25 C 106.0625 31.996094 105.515625 31.886719 104.785156 31.886719 L 103.421875 31.886719 L 102.515625 35.773438 L 103.738281 35.773438 C 104.765625 35.773438 105.570312 35.570312 106.136719 35.152344 C 106.710938 34.734375 106.996094 34.140625 106.996094 33.375 Z M 116.859375 41.421875 L 116.140625 41.894531 C 115.855469 42.078125 115.59375 42.222656 115.355469 42.328125 C 115.054688 42.457031 114.746094 42.554688 114.429688 42.632812 C 114.136719 42.699219 113.738281 42.738281 113.234375 42.738281 C 112.414062 42.738281 111.738281 42.511719 111.214844 42.054688 C 110.695312 41.597656 110.433594 41 110.433594 40.257812 C 110.433594 39.484375 110.617188 38.84375 110.988281 38.292969 C 111.355469 37.742188 111.90625 37.320312 112.636719 37 C 113.320312 36.695312 114.132812 36.476562 115.070312 36.339844 L 118.128906 36.042969 L 118.167969 35.875 C 118.191406 35.800781 118.199219 35.707031 118.199219 35.609375 C 118.207031 35.417969 118.160156 35.242188 118.054688 35.085938 C 117.949219 34.925781 117.808594 34.8125 117.625 34.742188 C 117.246094 34.574219 116.660156 34.492188 115.894531 34.492188 C 115.371094 34.492188 114.796875 34.574219 114.160156 34.75 L 112.742188 35.183594 L 112.449219 35.183594 L 112.925781 32.859375 C 113.292969 32.769531 113.878906 32.667969 114.644531 32.546875 C 115.40625 32.425781 116.191406 32.371094 116.960938 32.371094 C 118.507812 32.371094 119.652344 32.5625 120.371094 32.972656 C 121.101562 33.375 121.460938 33.996094 121.460938 34.839844 C 121.460938 34.992188 121.449219 35.144531 121.433594 35.296875 C 121.414062 35.460938 121.386719 35.625 121.347656 35.785156 L 119.796875 42.457031 L 116.648438 42.457031 Z M 117.703125 37.835938 L 116.109375 38.003906 C 115.675781 38.050781 115.253906 38.144531 114.84375 38.285156 C 114.480469 38.414062 114.207031 38.597656 114.023438 38.824219 C 113.832031 39.058594 113.738281 39.363281 113.738281 39.75 C 113.738281 40.082031 113.863281 40.316406 114.113281 40.464844 C 114.367188 40.609375 114.726562 40.667969 115.210938 40.667969 C 115.527344 40.667969 115.855469 40.601562 116.214844 40.457031 C 116.574219 40.3125 116.90625 40.128906 117.222656 39.90625 Z M 126.324219 46.058594 L 122.835938 46.058594 L 125.355469 42.265625 L 123.730469 32.664062 L 126.976562 32.664062 L 127.832031 39.082031 L 131.597656 32.664062 L 134.949219 32.664062 Z M 126.324219 46.058594 "/><g clip-rule="nonzero" clip-path="url(#clip2)"><path style=" stroke:none;fill-rule:nonzero;fill:rgb(0%,61.569214%,88.62915%);fill-opacity:1;" d="M 147.636719 33.058594 C 147.636719 34.605469 146.992188 35.855469 145.695312 36.804688 C 144.398438 37.753906 142.589844 38.222656 140.265625 38.222656 L 138.980469 38.222656 L 137.988281 42.457031 L 134.59375 42.457031 L 137.613281 29.464844 L 142.332031 29.464844 C 143.1875 29.464844 143.933594 29.523438 144.570312 29.636719 C 145.207031 29.753906 145.757812 29.957031 146.21875 30.238281 C 146.671875 30.515625 147.023438 30.882812 147.269531 31.347656 C 147.515625 31.820312 147.640625 32.378906 147.640625 33.046875 Z M 144.015625 33.382812 C 144.015625 32.875 143.832031 32.503906 143.457031 32.25 C 143.082031 31.996094 142.535156 31.886719 141.804688 31.886719 L 140.441406 31.886719 L 139.535156 35.773438 L 140.753906 35.773438 C 141.78125 35.773438 142.585938 35.570312 143.15625 35.152344 C 143.730469 34.734375 144.011719 34.140625 144.011719 33.375 Z M 153.886719 41.421875 L 153.167969 41.894531 C 152.882812 42.078125 152.621094 42.222656 152.382812 42.328125 C 152.082031 42.457031 151.773438 42.554688 151.457031 42.632812 C 151.164062 42.699219 150.765625 42.738281 150.257812 42.738281 C 149.4375 42.738281 148.765625 42.511719 148.242188 42.054688 C 147.722656 41.597656 147.460938 41 147.460938 40.257812 C 147.460938 39.484375 147.644531 38.84375 148.015625 38.292969 C 148.382812 37.742188 148.933594 37.320312 149.664062 37 C 150.347656 36.695312 151.160156 36.476562 152.097656 36.339844 L 155.15625 36.042969 L 155.195312 35.875 C 155.21875 35.800781 155.226562 35.707031 155.226562 35.609375 C 155.234375 35.417969 155.1875 35.242188 155.082031 35.085938 C 154.976562 34.925781 154.832031 34.8125 154.652344 34.742188 C 154.273438 34.574219 153.6875 34.492188 152.921875 34.492188 C 152.398438 34.492188 151.824219 34.574219 151.1875 34.75 L 149.769531 35.183594 L 149.476562 35.183594 L 149.953125 32.859375 C 150.320312 32.769531 150.90625 32.667969 151.671875 32.546875 C 152.433594 32.425781 153.21875 32.371094 153.988281 32.371094 C 155.535156 32.371094 156.679688 32.5625 157.398438 32.972656 C 158.128906 33.375 158.488281 33.996094 158.488281 34.839844 C 158.488281 34.992188 158.476562 35.144531 158.457031 35.296875 C 158.441406 35.460938 158.414062 35.625 158.375 35.785156 L 156.824219 42.457031 L 153.667969 42.457031 Z M 154.730469 37.835938 L 153.136719 38.003906 C 152.703125 38.050781 152.28125 38.144531 151.871094 38.285156 C 151.507812 38.414062 151.234375 38.597656 151.050781 38.824219 C 150.859375 39.058594 150.765625 39.363281 150.765625 39.75 C 150.765625 40.082031 150.890625 40.316406 151.140625 40.464844 C 151.394531 40.609375 151.753906 40.667969 152.238281 40.667969 C 152.554688 40.667969 152.882812 40.601562 153.242188 40.457031 C 153.601562 40.3125 153.933594 40.128906 154.246094 39.90625 Z M 166.058594 28.878906 L 162.890625 42.460938 L 159.699219 42.460938 L 162.867188 28.878906 Z M 166.058594 28.878906 "/></g><path style=" stroke:none;fill-rule:nonzero;fill:rgb(0%,61.178589%,87.059021%);fill-opacity:1;" d="M 93.25 30.367188 C 93.25 34.066406 91.699219 37.054688 88.601562 39.324219 C 85.503906 41.59375 81.175781 42.722656 75.609375 42.722656 L 72.535156 42.722656 L 70.175781 52.851562 L 62.046875 52.851562 L 69.554688 21.773438 L 80.5625 21.773438 C 82.613281 21.773438 84.398438 21.914062 85.929688 22.195312 C 87.453125 22.472656 88.773438 22.953125 89.878906 23.636719 C 90.972656 24.320312 91.816406 25.207031 92.390625 26.296875 C 92.964844 27.382812 93.25 28.742188 93.25 30.367188 Z M 93.25 30.367188 "/><g clip-rule="nonzero" clip-path="url(#clip3)"><path style=" stroke:none;fill-rule:nonzero;fill:rgb(100%,100%,100%);fill-opacity:1;" d="M 70.449219 53.183594 L 61.621094 53.183594 L 69.292969 21.433594 L 80.5625 21.433594 C 82.621094 21.433594 84.445312 21.578125 85.984375 21.855469 C 87.542969 22.140625 88.910156 22.640625 90.050781 23.339844 C 91.191406 24.050781 92.082031 24.992188 92.683594 26.128906 C 93.285156 27.265625 93.585938 28.6875 93.585938 30.363281 C 93.585938 34.15625 91.980469 37.265625 88.800781 39.585938 C 85.65625 41.890625 81.21875 43.054688 75.605469 43.054688 L 72.792969 43.054688 Z M 62.476562 52.519531 L 69.910156 52.519531 L 72.269531 42.390625 L 75.609375 42.390625 C 81.074219 42.390625 85.382812 41.265625 88.402344 39.050781 C 89.902344 37.957031 91.042969 36.667969 91.789062 35.230469 C 92.53125 33.796875 92.910156 32.15625 92.910156 30.367188 C 92.910156 28.804688 92.628906 27.484375 92.082031 26.441406 C 91.535156 25.402344 90.734375 24.558594 89.695312 23.90625 C 88.628906 23.25 87.335938 22.78125 85.859375 22.511719 C 84.363281 22.242188 82.578125 22.097656 80.554688 22.097656 L 69.820312 22.097656 Z M 62.476562 52.519531 "/></g><path style=" stroke:none;fill-rule:nonzero;fill:rgb(5.879211%,20.779419%,44.709778%);fill-opacity:1;" d="M 89.640625 26.90625 C 89.640625 30.605469 88.089844 33.59375 84.992188 35.863281 C 81.894531 38.132812 77.566406 39.261719 72 39.261719 L 68.925781 39.261719 L 66.566406 49.386719 L 58.4375 49.386719 L 65.675781 18.304688 L 76.953125 18.304688 C 79.003906 18.304688 80.785156 18.449219 82.320312 18.726562 C 83.84375 19.003906 85.164062 19.484375 86.269531 20.167969 C 87.363281 20.851562 88.207031 21.738281 88.78125 22.832031 C 89.355469 23.914062 89.640625 25.277344 89.640625 26.90625 Z M 89.640625 26.90625 "/><g clip-rule="nonzero" clip-path="url(#clip4)"><path style=" stroke:none;fill-rule:nonzero;fill:rgb(100%,100%,100%);fill-opacity:1;" d="M 66.832031 49.71875 L 58.011719 49.71875 L 65.402344 17.972656 L 76.953125 17.972656 C 79.007812 17.972656 80.835938 18.117188 82.375 18.394531 C 83.933594 18.679688 85.300781 19.179688 86.441406 19.878906 C 87.582031 20.589844 88.472656 21.53125 89.074219 22.667969 C 89.675781 23.804688 89.976562 25.226562 89.976562 26.902344 C 89.976562 30.695312 88.371094 33.804688 85.191406 36.125 C 82.046875 38.429688 77.609375 39.59375 71.996094 39.59375 L 69.183594 39.59375 Z M 58.859375 49.050781 L 66.300781 49.050781 L 68.65625 38.921875 L 72 38.921875 C 77.464844 38.921875 81.773438 37.800781 84.792969 35.585938 C 86.289062 34.488281 87.433594 33.199219 88.179688 31.765625 C 88.921875 30.328125 89.300781 28.6875 89.300781 26.902344 C 89.300781 25.335938 89.019531 24.015625 88.472656 22.972656 C 87.925781 21.9375 87.125 21.089844 86.085938 20.4375 C 85.019531 19.78125 83.726562 19.316406 82.25 19.042969 C 80.753906 18.773438 78.96875 18.628906 76.945312 18.628906 L 65.9375 18.628906 Z M 81.285156 28.011719 C 81.222656 28.960938 81.03125 29.65625 80.445312 30.464844 C 79.863281 31.269531 79.179688 31.792969 78.265625 32.226562 C 77.710938 32.480469 77.136719 32.652344 76.535156 32.734375 C 75.933594 32.8125 75.214844 32.863281 74.375 32.863281 L 70.332031 32.863281 L 72.597656 24.828125 L 76.269531 24.828125 C 77.203125 24.828125 77.957031 24.84375 78.523438 24.96875 C 79.089844 25.09375 79.554688 25.261719 79.90625 25.472656 C 80.390625 25.757812 80.78125 26.101562 81.003906 26.542969 C 81.285156 27.058594 81.320312 27.390625 81.285156 28.011719 Z M 81.285156 28.011719 "/></g><g clip-rule="nonzero" clip-path="url(#clip5)"><path style=" stroke:none;fill-rule:evenodd;fill:rgb(3.529358%,47.44873%,22.349548%);fill-opacity:1;" d="M 267.542969 50.527344 L 282.855469 36.574219 L 275.601562 22.136719 Z M 267.542969 50.527344 "/></g><path style=" stroke:none;fill-rule:evenodd;fill:rgb(92.939758%,45.878601%,18.03894%);fill-opacity:1;" d="M 262.382812 50.527344 L 277.699219 36.574219 L 270.445312 22.136719 Z M 262.382812 50.527344 "/><g clip-rule="nonzero" clip-path="url(#clip6)"><path style=" stroke:none;fill-rule:evenodd;fill:rgb(45.489502%,45.489502%,45.489502%);fill-opacity:1;" d="M 189.199219 22.296875 L 182.75 45.234375 L 205.640625 45.394531 L 211.929688 22.296875 L 217.730469 22.296875 L 210.191406 49.152344 C 209.902344 50.175781 208.804688 51.007812 207.738281 51.007812 L 178.398438 51.007812 C 176.617188 51.007812 175.5625 49.621094 176.046875 47.910156 L 183.234375 22.296875 Z M 259.964844 22.136719 L 265.769531 22.136719 L 257.707031 51.007812 L 251.742188 51.007812 Z M 218.375 34.167969 L 247.394531 34.007812 L 249.328125 27.910156 L 219.828125 27.910156 L 221.597656 22.296875 L 253.035156 22.007812 C 254.992188 21.992188 256.160156 23.503906 255.644531 25.390625 L 252.683594 36.207031 C 252.164062 38.089844 250.15625 39.621094 248.203125 39.621094 L 222.246094 39.621094 L 219.183594 51.488281 L 213.539062 51.488281 Z M 218.375 34.167969 "/></g><g clip-rule="nonzero" clip-path="url(#clip7)"><path style=" stroke:none;fill-rule:nonzero;fill:rgb(5.099487%,27.839661%,63.139343%);fill-opacity:1;" d="M 302.933594 25.148438 L 293.265625 25.148438 C 292.71875 25.148438 292.273438 25.480469 292.273438 26.140625 L 292.183594 49.839844 C 292.183594 50.429688 292.570312 50.726562 293.101562 50.726562 C 294.550781 50.726562 295.738281 50.726562 297.1875 50.726562 C 297.691406 50.726562 298.105469 50.480469 298.105469 49.988281 C 298.105469 47.792969 298.105469 45.085938 298.105469 42.894531 L 302.300781 42.910156 C 305.0625 42.730469 306.910156 41.445312 307.679688 38.863281 C 307.910156 38.085938 307.957031 37.414062 307.957031 36.617188 L 308.171875 30.96875 C 307.972656 26.996094 305.898438 25.488281 302.933594 25.148438 Z M 302.042969 35.917969 C 302.042969 36.496094 301.566406 36.972656 300.988281 36.972656 L 298.105469 36.972656 L 298.105469 31.050781 L 300.988281 31.050781 C 301.566406 31.050781 302.042969 31.523438 302.042969 32.109375 Z M 319.695312 25.128906 L 312.9375 25.128906 C 312.425781 25.128906 311.984375 25.289062 311.984375 25.824219 C 311.984375 27.214844 311.984375 28.773438 311.984375 30.167969 C 312.039062 30.746094 312.441406 31.050781 313.011719 31.050781 L 318.644531 31.050781 C 319.816406 31.050781 319.695312 32.96875 318.644531 33.023438 L 315.550781 33.023438 C 312.121094 33.023438 309.949219 36.109375 309.949219 39.214844 C 309.949219 40.046875 309.957031 41.992188 309.949219 42.894531 C 309.929688 44.179688 309.917969 45.480469 310.167969 46.640625 C 310.609375 48.695312 312.386719 50.789062 315.074219 50.789062 L 323.417969 50.789062 C 324.484375 50.789062 325.734375 49.851562 325.734375 48.617188 L 325.734375 32.285156 C 325.789062 27.980469 323.648438 25.363281 319.695312 25.128906 Z M 319.816406 43.980469 C 319.816406 44.46875 319.417969 44.867188 318.929688 44.867188 L 316.75 44.867188 C 316.265625 44.867188 315.867188 44.46875 315.867188 43.980469 L 315.867188 39.832031 C 315.867188 39.34375 316.265625 38.945312 316.75 38.945312 L 318.929688 38.945312 C 319.417969 38.945312 319.816406 39.34375 319.816406 39.832031 Z M 327.710938 26.304688 L 327.710938 37.371094 C 327.957031 40.527344 330.882812 42.894531 333.96875 42.894531 L 336.761719 42.894531 C 337.9375 42.894531 337.867188 44.804688 336.761719 44.804688 L 330.652344 44.804688 C 329.980469 44.804688 329.738281 45.15625 329.738281 45.746094 L 329.738281 49.992188 C 329.738281 50.4375 330.101562 50.773438 330.574219 50.773438 L 336.414062 50.773438 C 341.179688 50.773438 343.5 48.488281 343.5 43.359375 L 343.5 25.914062 C 343.5 25.367188 343.15625 25.15625 342.824219 25.15625 L 338.28125 25.15625 C 337.839844 25.15625 337.582031 25.636719 337.582031 25.988281 L 337.582031 36.289062 C 337.582031 36.679688 337.363281 36.910156 337.007812 36.910156 L 334.441406 36.910156 C 333.917969 36.910156 333.632812 36.628906 333.632812 36.128906 L 333.632812 26.148438 C 333.632812 25.5625 333.394531 25.128906 332.746094 25.128906 C 331.210938 25.128906 329.902344 25.128906 328.367188 25.128906 C 327.84375 25.128906 327.710938 25.648438 327.710938 26.304688 Z M 327.710938 26.304688 "/></g><g clip-rule="nonzero" clip-path="url(#clip8)"><path style=" stroke:none;fill-rule:nonzero;fill:rgb(0%,67.83905%,93.328857%);fill-opacity:1;" d="M 345.546875 30.199219 L 345.546875 25.980469 C 345.546875 25.511719 345.929688 25.128906 346.398438 25.128906 L 347.449219 25.128906 C 350.148438 24.566406 351.101562 23.90625 352.753906 22.125 C 353.765625 21.027344 354.660156 20.738281 355.316406 21.902344 L 355.34375 25.128906 L 358.4375 25.128906 C 358.910156 25.128906 359.289062 25.511719 359.289062 25.980469 L 359.289062 30.199219 C 359.289062 30.667969 358.90625 31.050781 358.4375 31.050781 L 355.34375 31.050781 L 355.34375 49.9375 C 355.34375 50.40625 354.960938 50.789062 354.492188 50.789062 L 350.269531 50.789062 C 349.800781 50.789062 349.421875 50.40625 349.421875 49.9375 L 349.421875 31.050781 L 346.398438 31.050781 C 345.933594 31.050781 345.546875 30.667969 345.546875 30.199219 Z M 377.035156 49.734375 C 377.035156 50.3125 376.554688 50.789062 375.972656 50.789062 L 372.203125 50.789062 C 371.613281 50.789062 371.136719 50.3125 371.136719 49.734375 L 371.136719 32.96875 C 371.136719 30.433594 367.183594 30.433594 367.183594 32.96875 L 367.183594 49.734375 C 367.183594 50.3125 366.707031 50.789062 366.121094 50.789062 L 362.328125 50.789062 C 361.742188 50.789062 361.261719 50.3125 361.261719 49.734375 L 361.261719 26.191406 C 361.261719 25.605469 361.742188 25.128906 362.328125 25.128906 L 366.230469 25.128906 C 366.816406 25.128906 367.292969 25.605469 367.292969 26.191406 L 367.292969 26.765625 C 369.898438 24.269531 373.808594 24.847656 376.007812 27.214844 C 380.148438 22.46875 387.238281 26.699219 386.910156 31.902344 C 386.910156 37.660156 386.859375 43.929688 386.859375 49.734375 C 386.859375 50.3125 386.375 50.789062 385.796875 50.789062 L 382.0625 50.789062 C 381.476562 50.789062 381 50.3125 381 49.734375 C 381 44.234375 381 38.480469 381 33.074219 C 381 30.496094 377.050781 30.371094 377.050781 33.074219 L 377.050781 49.734375 Z M 377.035156 49.734375 "/></g></g></svg>