<svg xmlns="http://www.w3.org/2000/svg" enable-background="new 0 0 512 512" viewBox="0 0 512 512"><polygon fill="#fff" points="367.14 159.68 394.41 314.28 274.16 415.19 126.64 361.51 99.37 206.91 219.62 106"/><radialGradient id="a" cx="252.115" cy="268.098" r="152.667" gradientTransform="rotate(.81 170.724 266.133)" gradientUnits="userSpaceOnUse"><stop offset="0" stop-color="#1c1953"/><stop offset=".183" stop-color="#4e4c79" stop-opacity=".817"/><stop offset=".477" stop-color="#9998b2" stop-opacity=".522"/><stop offset=".722" stop-color="#d0d0dc" stop-opacity=".278"/><stop offset=".902" stop-color="#f2f2f5" stop-opacity=".098"/><stop offset="1" stop-color="#fff" stop-opacity="0"/></radialGradient><circle cx="252.09" cy="269.16" r="152.67" fill="url(#a)" opacity=".8"/><radialGradient id="b" cx="303.434" cy="345.034" r="180.612" gradientTransform="matrix(.7307 .0095 -.00976 .7508 60.672 52.987)" gradientUnits="userSpaceOnUse"><stop offset="0" stop-color="#000057"/><stop offset=".248" stop-color="#4c4c89" stop-opacity=".752"/><stop offset=".519" stop-color="#9898bb" stop-opacity=".481"/><stop offset=".744" stop-color="#d0d0e0" stop-opacity=".256"/><stop offset=".91" stop-color="#f2f2f6" stop-opacity=".09"/><stop offset="1" stop-color="#fff" stop-opacity="0"/></radialGradient><path fill="url(#b)" d="M410.99,316.65c-0.97,74.9-60.85,134.84-133.73,133.89c-72.89-0.95-131.18-62.43-130.21-137.32
			s60.85-134.84,133.73-133.89C353.67,180.27,411.96,241.75,410.99,316.65z" display="none" opacity=".8"/><linearGradient id="c" x1="307.495" x2="175.735" y1="192.449" y2="324.209" gradientTransform="rotate(.81 170.724 266.133)" gradientUnits="userSpaceOnUse"><stop offset="0" stop-color="#0cf"/><stop offset="1" stop-color="#0080ff"/></linearGradient><path fill="url(#c)" d="M333.6,260.45c-0.68,52.15-42.37,93.88-93.11,93.22c-50.75-0.66-91.33-43.47-90.66-95.61
			c0.68-52.15,42.37-93.88,93.11-93.22C293.69,165.5,334.28,208.3,333.6,260.45z"/><path fill="#fff" d="M292.9,227.56c-3.2,1.44-6.73,2.29-10.17,2.84c1.63-0.26,4.07-3.26,5.04-4.47c1.49-1.85,2.73-3.97,3.45-6.26
			c0.09-0.18,0.16-0.4-0.02-0.54c-0.22-0.09-0.36-0.05-0.54,0.04c-3.86,2.06-7.85,3.54-12.08,4.57c-0.35,0.09-0.61-0.01-0.83-0.24
			c-0.34-0.41-0.67-0.8-1.04-1.12c-1.75-1.57-3.64-2.81-5.77-3.74c-2.8-1.22-5.87-1.76-8.91-1.59c-2.95,0.16-5.86,0.98-8.5,2.35
			c-2.64,1.37-5.01,3.3-6.91,5.65c-1.96,2.42-3.42,5.29-4.19,8.35c-0.74,2.95-0.72,5.87-0.33,8.86c0.06,0.5,0.01,0.56-0.42,0.49
			c-16.47-2.74-30.07-8.98-41.01-22.13c-0.47-0.57-0.74-0.57-1.14,0.03c-4.96,7.42-2.76,19.48,3.24,25.47
			c0.8,0.8,1.62,1.6,2.51,2.33c-0.33,0.06-4.36-0.44-7.94-2.4c-0.48-0.32-0.72-0.14-0.77,0.42c-0.06,0.81,0,1.55,0.1,2.43
			c0.83,7.6,5.86,14.68,12.82,17.51c0.83,0.37,1.74,0.7,2.64,0.87c-1.6,0.34-3.25,0.57-7.82,0.15c-0.57-0.12-0.79,0.17-0.58,0.73
			c3.31,9.67,10.7,12.64,16.23,14.34c0.74,0.14,1.49,0.15,2.23,0.34c-0.05,0.07-0.09,0.07-0.13,0.13c-1.88,2.86-8.3,4.93-11.29,5.96
			c-5.44,1.87-11.34,2.67-17.06,2.02c-0.91-0.15-1.11-0.14-1.36-0.02c-0.25,0.16-0.04,0.38,0.25,0.63c1.15,0.8,2.32,1.52,3.52,2.21
			c3.61,2.03,7.38,3.65,11.32,4.83c20.38,6.07,43.48,2.11,59.04-13.38c12.22-12.16,16.67-29.09,16.89-46.09
			c0.01-0.67,0.78-1.02,1.24-1.37c3.17-2.38,5.74-5.25,8.12-8.46c0.54-0.72,0.55-1.37,0.55-1.63c0-0.05,0-0.09,0-0.09
			C293.32,227.3,293.31,227.38,292.9,227.56z"/></svg>